<svg version="1.1" id="Layer_1" xmlns="http://www.w3.org/2000/svg" xmlns:xlink="http://www.w3.org/1999/xlink" x="0px" y="0px"
	 width="100%" viewBox="0 0 496 496" enable-background="new 0 0 496 496" xml:space="preserve">
<path fill="#000000" opacity="1.000000" stroke="none" 
	d="
M161.988312,283.329498 
	C159.325912,283.327118 157.160583,283.324463 154.995255,283.322723 
	C144.781570,283.314514 144.864746,283.327301 143.319412,293.430511 
	C142.517609,298.672668 141.415665,303.871918 140.334396,309.066650 
	C139.963013,310.850800 139.408325,312.906189 137.108826,312.968018 
	C129.355988,313.176453 121.590050,313.470734 113.653839,312.782684 
	C113.670250,305.676361 115.862869,299.518829 116.878464,293.185516 
	C118.111984,285.493225 120.071159,277.919495 121.413780,270.241547 
	C122.024048,266.751709 123.919151,264.794586 126.770248,262.975067 
	C138.521881,255.475342 151.713394,251.168594 164.367447,245.676086 
	C174.904892,241.102325 185.363663,236.393845 195.069962,230.176865 
	C196.289108,229.395996 197.425018,228.224304 199.596786,228.820511 
	C199.645264,235.235352 197.550491,241.343094 196.010727,247.519547 
	C195.417175,249.900406 193.101410,249.348328 191.357254,249.361847 
	C183.695770,249.421265 176.030441,249.262741 168.372833,249.446686 
	C163.365250,249.566971 158.303543,250.086716 154.358917,253.706360 
	C151.724518,256.123749 150.136337,259.152832 150.053101,263.627289 
	C159.740280,263.627289 169.128937,263.627289 178.556610,263.627289 
	C179.143356,269.940948 176.685501,275.041443 175.977524,280.416016 
	C175.699066,282.529816 174.114685,283.367249 171.978638,283.323883 
	C168.815552,283.259613 165.649933,283.321442 161.988312,283.329498 
z"/>
<path fill="#000000" opacity="1.000000" stroke="none" 
	d="
M141.891876,252.007462 
	C132.455811,256.031738 123.855476,260.649597 116.769592,267.746613 
	C109.677124,274.850220 106.024910,282.881622 109.268013,293.022308 
	C109.444618,293.574524 109.290817,294.232422 109.290817,295.132538 
	C103.202217,289.507324 101.338074,277.882141 104.833733,268.964783 
	C109.571480,256.878845 119.176918,249.615280 130.092911,243.772018 
	C145.277328,235.643845 162.096100,231.562302 177.816025,224.746674 
	C188.863663,219.956818 199.551819,214.565628 208.309097,206.047470 
	C209.838974,204.559357 211.570358,203.175934 212.116882,201.009918 
	C211.678192,198.528458 208.495956,200.076950 207.819901,197.057632 
	C212.669159,193.460434 218.450104,190.762787 224.894913,187.965927 
	C225.893494,195.321060 224.446472,201.651489 222.846878,208.599899 
	C221.174423,207.263519 220.051834,206.366516 219.162781,205.656113 
	C217.816422,205.412109 217.310150,206.131042 216.828796,206.794128 
	C205.450027,222.469162 189.322678,231.654556 172.128647,239.284897 
	C162.250397,243.668640 152.203598,247.672577 141.891876,252.007462 
z"/>
<path fill="#000000" opacity="1.000000" stroke="none" 
	d="
M200.921906,208.111832 
	C194.288483,214.066238 186.898193,217.975433 179.171967,221.008835 
	C177.202621,219.413177 177.703094,217.629074 177.699646,216.066910 
	C177.654205,195.441330 177.747849,174.814972 177.587204,154.190506 
	C177.555084,150.067261 178.929733,148.507019 183.050781,148.743088 
	C187.526947,148.999512 192.032822,148.899475 196.519455,148.756943 
	C199.831512,148.651749 201.370255,149.807251 201.338043,153.344193 
	C201.173019,171.469315 201.151047,189.595749 200.921906,208.111832 
z"/>
<path fill="#000000" opacity="1.000000" stroke="none" 
	d="
M149.677933,209.999878 
	C149.673996,200.178894 149.905212,190.849442 149.570099,181.540375 
	C149.399216,176.793594 151.180252,175.370773 155.633499,175.693146 
	C159.773636,175.992859 163.953293,175.864548 168.111328,175.758881 
	C170.998688,175.685486 172.381638,176.715317 172.366394,179.783249 
	C172.298630,193.431076 172.335678,207.079498 172.366043,220.727631 
	C172.370575,222.765091 171.738815,224.277191 169.682373,224.989120 
	C164.341080,226.838242 159.003128,228.697433 153.675034,230.584137 
	C150.672791,231.647217 149.723572,230.218231 149.723282,227.477020 
	C149.722687,221.817963 149.695160,216.158890 149.677933,209.999878 
z"/>
<path fill="#000000" opacity="1.000000" stroke="none" 
	d="
M128.102997,241.168976 
	C125.862320,242.105240 124.360001,244.808899 122.100952,243.521744 
	C119.942451,242.291931 120.782280,239.598587 120.767845,237.519699 
	C120.697380,227.368729 120.848640,217.215240 120.686264,207.066406 
	C120.627670,203.404114 121.967262,201.940170 125.618034,202.051346 
	C130.104965,202.188004 134.602707,202.054413 139.093628,201.947571 
	C142.546936,201.865402 144.332672,203.161682 144.261444,206.906967 
	C144.119110,214.393005 144.141220,221.884644 144.248901,229.371765 
	C144.293579,232.478622 142.929504,234.292252 140.169647,235.494507 
	C136.210022,237.219421 132.338196,239.145859 128.102997,241.168976 
z"/>
<path fill="#000000" opacity="1.000000" stroke="none" 
	d="
M272.172485,281.105957 
	C275.060516,280.755798 275.895142,282.364624 276.820526,284.339844 
	C279.374603,289.791595 287.410248,291.946136 292.594940,288.731812 
	C294.381012,287.624542 295.707886,286.131958 295.556732,283.888275 
	C295.406555,281.658905 294.002991,280.128143 292.001923,279.492462 
	C288.208221,278.287323 284.309875,277.416199 280.489868,276.288330 
	C274.135803,274.412323 271.285248,271.215637 271.225739,266.087585 
	C271.162354,260.628601 274.502380,256.480865 280.490204,254.582718 
	C288.869324,251.926498 297.445343,255.304276 300.265869,262.414368 
	C300.917999,264.058289 302.160797,266.066437 299.742462,267.147278 
	C297.674347,268.071594 295.764740,268.014862 294.456299,265.268982 
	C292.222992,260.582092 285.576691,258.495911 280.949432,260.672913 
	C279.131775,261.528046 278.265686,263.032990 278.188721,265.059418 
	C278.091461,267.621338 279.443237,269.235962 281.681366,269.929138 
	C285.165863,271.008270 288.750763,271.758057 292.270966,272.727997 
	C299.513641,274.723633 302.429016,278.008270 302.259979,283.871735 
	C302.089844,289.773834 297.955353,294.102966 291.158386,295.495819 
	C280.486816,297.682678 272.161011,293.542023 270.405609,285.235962 
	C270.044586,283.527740 269.512054,281.912170 272.172485,281.105957 
z"/>
<path fill="#000000" opacity="1.000000" stroke="none" 
	d="
M203.028000,254.670197 
	C207.519852,254.676498 211.520203,254.752640 215.516907,254.663864 
	C218.259705,254.602951 219.376495,255.739548 219.391266,258.515839 
	C219.406738,261.421722 217.982941,262.294952 215.387634,262.267242 
	C211.389481,262.224518 207.386597,262.388245 203.392731,262.254944 
	C200.390289,262.154694 199.276398,263.327148 199.274536,266.358826 
	C199.272614,269.472260 200.204376,271.046722 203.541428,270.914612 
	C206.867401,270.782928 210.204163,270.938721 213.536224,270.941681 
	C216.279160,270.944092 217.341064,272.303253 217.293335,275.012848 
	C217.244217,277.801392 215.606461,278.295532 213.367538,278.291077 
	C209.868668,278.284149 206.368652,278.363647 202.871155,278.297913 
	C200.315338,278.249878 199.260025,279.406403 199.327591,281.924866 
	C199.408005,284.921509 199.172455,287.932220 199.358551,290.919098 
	C199.589233,294.621490 197.699783,295.311584 194.475815,295.337219 
	C190.865311,295.365875 190.657944,293.528412 190.554596,290.616333 
	C190.206421,280.804901 191.064377,270.995453 190.244217,261.175140 
	C189.740311,255.141327 190.491943,254.705734 196.536606,254.676178 
	C198.536026,254.666412 200.535492,254.671448 203.028000,254.670197 
z"/>
<path fill="#000000" opacity="1.000000" stroke="none" 
	d="
M354.668884,271.136719 
	C348.942139,269.798920 343.588196,273.361145 343.317200,278.579010 
	C343.101898,282.725311 343.261017,286.890717 343.239197,291.047546 
	C343.228119,293.157867 343.043549,295.099030 340.186401,295.201965 
	C337.452972,295.300354 336.766388,293.698273 336.765167,291.413971 
	C336.761078,283.931488 336.772461,276.449005 336.755341,268.966553 
	C336.748199,265.848846 339.289642,264.680145 340.934601,266.086182 
	C343.295349,268.104065 344.457336,266.774261 346.304077,265.933044 
	C352.662231,263.036804 359.497406,266.020020 361.861420,272.414764 
	C363.382843,276.530182 364.107422,280.989655 367.214905,285.524750 
	C369.199585,280.044983 371.223358,275.362213 372.558105,270.490631 
	C373.660370,266.467682 375.561035,264.787598 379.704224,266.087128 
	C380.862762,267.805878 379.666870,269.344208 379.145142,270.770721 
	C376.634705,277.634827 373.941772,284.432098 371.323090,291.256714 
	C370.515594,293.361176 369.547760,295.149139 366.841888,295.222382 
	C364.097443,295.296661 363.230225,293.658905 362.414673,291.421173 
	C359.970703,284.715302 357.317932,278.085571 354.668884,271.136719 
z"/>
<path fill="#000000" opacity="1.000000" stroke="none" 
	d="
M248.309692,266.629120 
	C259.570343,262.649811 265.978333,266.994965 266.104248,278.379608 
	C266.152008,282.700012 266.061340,287.021912 266.035004,291.343140 
	C266.014435,294.724915 263.948425,295.347107 261.058533,295.342804 
	C258.082031,295.338379 256.811768,294.040619 256.828186,291.152344 
	C256.852783,286.830933 256.789886,282.509064 256.794037,278.187408 
	C256.796997,275.099792 256.228577,272.407867 252.399460,272.233673 
	C248.393250,272.051422 246.628906,274.521179 246.429138,278.078033 
	C246.187134,282.386902 246.269562,286.719727 246.355652,291.039307 
	C246.412521,293.891998 245.423874,295.334503 242.339661,295.338104 
	C239.344940,295.341583 237.619873,294.550659 237.677734,291.149323 
	C237.790787,284.502563 237.666855,277.852173 237.693359,271.203491 
	C237.714630,265.874023 239.072708,264.824036 244.272217,265.750397 
	C245.552414,265.978546 246.471344,267.430878 248.309692,266.629120 
z"/>
<path fill="#000000" opacity="1.000000" stroke="none" 
	d="
M329.467346,291.384094 
	C323.081543,296.963226 315.766876,297.493317 310.192505,293.039337 
	C304.322815,288.349396 303.008728,279.186249 307.123047,271.635742 
	C310.033569,266.294434 317.386749,263.599091 323.569824,265.607117 
	C328.748169,267.288849 332.900909,273.228119 332.750885,278.605560 
	C332.683258,281.029358 331.662231,282.307312 329.136627,282.288086 
	C325.150024,282.257751 321.161621,282.238800 317.176575,282.329376 
	C315.416992,282.369354 313.498688,281.849518 311.815247,283.428650 
	C311.631897,287.108368 313.918823,289.141022 317.022522,290.259613 
	C320.197540,291.403900 323.095062,290.168060 325.003937,287.649414 
	C326.891937,285.158295 328.745972,284.086578 331.663971,285.650024 
	C332.188843,287.956299 330.895508,289.509552 329.467346,291.384094 
M312.321106,275.154297 
	C315.117950,279.114990 319.151215,276.291443 322.550171,276.964691 
	C323.640259,277.180664 324.979889,276.859467 325.380829,275.482880 
	C325.746796,274.226349 325.000305,273.254303 324.194336,272.380524 
	C321.020203,268.939331 316.129517,269.840851 312.321106,275.154297 
z"/>
<path fill="#000000" opacity="1.000000" stroke="none" 
	d="
M381.019287,281.799103 
	C382.109863,270.905029 385.363647,266.564178 393.196350,265.079010 
	C401.299591,263.542542 408.454803,269.718597 408.442993,277.973389 
	C408.438354,281.231354 407.204041,282.427277 404.032227,282.347321 
	C398.779510,282.214874 393.521027,282.311279 387.980743,282.311279 
	C388.068970,286.729156 389.919312,289.056549 393.101288,290.254639 
	C396.309113,291.462463 399.093964,290.239044 401.071045,287.703827 
	C402.937866,285.310028 404.801575,284.019806 407.716248,285.749146 
	C406.886414,292.008331 403.833130,294.734528 396.729095,295.652130 
	C390.353668,296.475677 384.735138,293.516846 382.546570,287.987061 
	C381.821259,286.154388 381.545044,284.143982 381.019287,281.799103 
M396.935608,270.451538 
	C392.534241,269.848053 389.679504,271.461853 388.586182,275.969788 
	C391.138458,277.606842 393.699402,277.003082 396.115906,276.992004 
	C397.958069,276.983582 400.658691,277.917267 401.301392,275.381470 
	C401.932251,272.892578 399.605377,271.696442 396.935608,270.451538 
z"/>
<path fill="#000000" opacity="1.000000" stroke="none" 
	d="
M227.038727,265.711456 
	C230.890900,265.299652 232.346649,266.726929 232.280106,270.202606 
	C232.149704,277.012482 232.204025,283.827423 232.286285,290.639038 
	C232.321808,293.580963 231.558975,295.338531 228.114899,295.332886 
	C224.914398,295.327667 223.616531,294.114960 223.663788,290.924744 
	C223.769608,283.781555 223.702164,276.635803 223.707169,269.491089 
	C223.708542,267.514740 224.029968,265.777161 227.038727,265.711456 
z"/>
<path fill="#000000" opacity="1.000000" stroke="none" 
	d="
M225.281006,255.037979 
	C228.077896,255.105164 231.321732,253.281876 232.106888,257.277008 
	C232.429642,258.919250 232.888657,261.196381 230.628708,261.945709 
	C228.643768,262.603882 226.064880,263.110535 224.577454,261.440765 
	C222.998123,259.667816 223.170914,257.212280 225.281006,255.037979 
z"/>
</svg>